<svg width="131" height="19" viewBox="0 0 131 19" fill="none" xmlns="http://www.w3.org/2000/svg">
<path d="M0 18V2.29688H10.7109V5.22656H3.25781V18H0ZM1.73438 12.1172V9.1875H9.42188V12.1172H1.73438ZM19.4062 18.3516C18.5312 18.3516 17.7109 18.2031 16.9453 17.9062C16.1797 17.5938 15.5 17.1641 14.9062 16.6172C14.3281 16.0703 13.875 15.4219 13.5469 14.6719C13.2188 13.9219 13.0547 13.1016 13.0547 12.2109C13.0547 11.0547 13.3125 10 13.8281 9.04688C14.3438 8.07812 15.0547 7.30469 15.9609 6.72656C16.8672 6.14844 17.8984 5.85938 19.0547 5.85938C20.2109 5.85938 21.2031 6.10938 22.0312 6.60938C22.875 7.10938 23.5156 7.80469 23.9531 8.69531C24.4062 9.57031 24.6328 10.5859 24.6328 11.7422V13.0078H15.7969V10.9688H21.7734C21.7422 10.3906 21.5859 9.92188 21.3047 9.5625C21.0234 9.1875 20.6797 8.91406 20.2734 8.74219C19.8672 8.55469 19.4375 8.46094 18.9844 8.46094C18.375 8.46094 17.8438 8.61719 17.3906 8.92969C16.9531 9.24219 16.6094 9.67969 16.3594 10.2422C16.1094 10.8047 15.9844 11.4609 15.9844 12.2109C15.9844 12.8828 16.1328 13.4766 16.4297 13.9922C16.7266 14.5078 17.1406 14.9141 17.6719 15.2109C18.2188 15.5078 18.8359 15.6562 19.5234 15.6562C20.3984 15.6562 21.1797 15.4844 21.8672 15.1406C22.5703 14.7969 23.125 14.4453 23.5312 14.0859V16.8516C23.2969 17.0703 22.9688 17.2969 22.5469 17.5312C22.125 17.7656 21.6406 17.9609 21.0938 18.1172C20.5625 18.2734 20 18.3516 19.4062 18.3516ZM31.8281 18.3516C30.8906 18.3516 30.0156 18.1094 29.2031 17.625C28.4062 17.1406 27.7578 16.4375 27.2578 15.5156C26.7734 14.5938 26.5312 13.4766 26.5312 12.1641C26.5312 10.8359 26.7734 9.70312 27.2578 8.76562C27.7578 7.82812 28.4219 7.10938 29.25 6.60938C30.0938 6.10938 31.0234 5.85938 32.0391 5.85938C32.6953 5.85938 33.3438 6.00781 33.9844 6.30469C34.6406 6.60156 35.1875 7 35.625 7.5V6.16406H38.6016V18H35.625V16.0078C35.2812 16.6484 34.7812 17.2031 34.125 17.6719C33.4688 18.125 32.7031 18.3516 31.8281 18.3516ZM32.5781 15.375C33.1094 15.375 33.6016 15.2344 34.0547 14.9531C34.5234 14.6719 34.9062 14.2734 35.2031 13.7578C35.5 13.2422 35.6406 12.6328 35.625 11.9297V10.2422C35.2031 9.78906 34.7422 9.42969 34.2422 9.16406C33.7578 8.89844 33.2266 8.76562 32.6484 8.76562C32.0234 8.76562 31.4844 8.92969 31.0312 9.25781C30.5938 9.57031 30.25 9.98438 30 10.5C29.75 11.0156 29.625 11.5703 29.625 12.1641C29.625 12.7422 29.75 13.2812 30 13.7812C30.25 14.2656 30.5938 14.6562 31.0312 14.9531C31.4844 15.2344 32 15.375 32.5781 15.375ZM47.1562 18.3516C46.4531 18.3516 45.8125 18.1953 45.2344 17.8828C44.6719 17.5703 44.2266 17.1328 43.8984 16.5703C43.5703 15.9922 43.4062 15.3125 43.4062 14.5312V8.64844H41.4375V7.125C42.2031 6.85938 42.8281 6.36719 43.3125 5.64844C43.8125 4.92969 44.25 4.03125 44.625 2.95312H46.3828V6.16406H49.9453V8.64844H46.3828V13.7578C46.3828 14.2891 46.5156 14.7109 46.7812 15.0234C47.0625 15.3203 47.4688 15.4688 48 15.4688C48.4688 15.4688 48.875 15.3984 49.2188 15.2578C49.5625 15.1172 49.8672 14.9688 50.1328 14.8125V17.3438C49.8516 17.6406 49.4531 17.8828 48.9375 18.0703C48.4375 18.2578 47.8438 18.3516 47.1562 18.3516ZM58.2891 18.2812C57.2578 18.2812 56.3359 18.0781 55.5234 17.6719C54.7266 17.2656 54.0938 16.6875 53.625 15.9375C53.1719 15.1719 52.9453 14.2656 52.9453 13.2188V6.16406H55.9688V12.6797C55.9688 13.5859 56.1797 14.2734 56.6016 14.7422C57.0391 15.1953 57.6016 15.4219 58.2891 15.4219C58.9766 15.4219 59.5312 15.1953 59.9531 14.7422C60.3906 14.2734 60.6094 13.5859 60.6094 12.6797V6.16406H63.6328V13.2188C63.6328 14.2656 63.3984 15.1719 62.9297 15.9375C62.4609 16.6875 61.8203 17.2656 61.0078 17.6719C60.2109 18.0781 59.3047 18.2812 58.2891 18.2812ZM67.0312 18V6.16406H70.0078V18H67.0312ZM70.0078 11.3906V8.39062C70.4141 7.6875 70.8906 7.10156 71.4375 6.63281C72 6.16406 72.6328 5.92969 73.3359 5.92969C73.7734 5.92969 74.1562 6 74.4844 6.14062V9.49219C74.25 9.35156 74 9.25 73.7344 9.1875C73.4844 9.10938 73.2109 9.07031 72.9141 9.07031C72.2422 9.07031 71.6719 9.29688 71.2031 9.75C70.75 10.1875 70.3516 10.7344 70.0078 11.3906ZM82.3125 18.3516C81.4375 18.3516 80.6172 18.2031 79.8516 17.9062C79.0859 17.5938 78.4062 17.1641 77.8125 16.6172C77.2344 16.0703 76.7812 15.4219 76.4531 14.6719C76.125 13.9219 75.9609 13.1016 75.9609 12.2109C75.9609 11.0547 76.2188 10 76.7344 9.04688C77.25 8.07812 77.9609 7.30469 78.8672 6.72656C79.7734 6.14844 80.8047 5.85938 81.9609 5.85938C83.1172 5.85938 84.1094 6.10938 84.9375 6.60938C85.7812 7.10938 86.4219 7.80469 86.8594 8.69531C87.3125 9.57031 87.5391 10.5859 87.5391 11.7422V13.0078H78.7031V10.9688H84.6797C84.6484 10.3906 84.4922 9.92188 84.2109 9.5625C83.9297 9.1875 83.5859 8.91406 83.1797 8.74219C82.7734 8.55469 82.3438 8.46094 81.8906 8.46094C81.2812 8.46094 80.75 8.61719 80.2969 8.92969C79.8594 9.24219 79.5156 9.67969 79.2656 10.2422C79.0156 10.8047 78.8906 11.4609 78.8906 12.2109C78.8906 12.8828 79.0391 13.4766 79.3359 13.9922C79.6328 14.5078 80.0469 14.9141 80.5781 15.2109C81.125 15.5078 81.7422 15.6562 82.4297 15.6562C83.3047 15.6562 84.0859 15.4844 84.7734 15.1406C85.4766 14.7969 86.0312 14.4453 86.4375 14.0859V16.8516C86.2031 17.0703 85.875 17.2969 85.4531 17.5312C85.0312 17.7656 84.5469 17.9609 84 18.1172C83.4688 18.2734 82.9062 18.3516 82.3125 18.3516ZM94.7344 18.3516C93.7969 18.3516 92.9219 18.1094 92.1094 17.625C91.3125 17.1406 90.6641 16.4375 90.1641 15.5156C89.6797 14.5938 89.4375 13.4766 89.4375 12.1641C89.4375 10.8359 89.6797 9.70312 90.1641 8.76562C90.6641 7.82812 91.3281 7.10938 92.1562 6.60938C93 6.10938 93.9297 5.85938 94.9453 5.85938C95.6016 5.85938 96.25 6.00781 96.8906 6.30469C97.5469 6.60156 98.0938 7 98.5312 7.5V1.125H101.508V18H98.5312V16.0078C98.1875 16.6484 97.6875 17.2031 97.0312 17.6719C96.375 18.125 95.6094 18.3516 94.7344 18.3516ZM95.4844 15.375C96.0156 15.375 96.5078 15.2344 96.9609 14.9531C97.4297 14.6719 97.8125 14.2734 98.1094 13.7578C98.4062 13.2422 98.5469 12.6328 98.5312 11.9297V10.2422C98.1094 9.78906 97.6484 9.4375 97.1484 9.1875C96.6641 8.92188 96.1328 8.78906 95.5547 8.78906C94.9297 8.78906 94.3906 8.95312 93.9375 9.28125C93.5 9.59375 93.1562 10.0078 92.9062 10.5234C92.6562 11.0234 92.5312 11.5703 92.5312 12.1641C92.5312 12.7422 92.6562 13.2812 92.9062 13.7812C93.1562 14.2656 93.5 14.6562 93.9375 14.9531C94.3906 15.2344 94.9062 15.375 95.4844 15.375ZM114.633 4.03125C114.07 4.03125 113.586 3.82812 113.18 3.42188C112.773 3.01562 112.57 2.54688 112.57 2.01562C112.57 1.45312 112.773 0.976562 113.18 0.585938C113.586 0.195313 114.07 0 114.633 0C115.008 0 115.352 0.09375 115.664 0.28125C115.977 0.453125 116.227 0.695312 116.414 1.00781C116.602 1.30469 116.695 1.64062 116.695 2.01562C116.695 2.35938 116.602 2.6875 116.414 3C116.227 3.3125 115.977 3.5625 115.664 3.75C115.352 3.9375 115.008 4.03125 114.633 4.03125ZM113.438 18V6.16406H116.414V18H113.438ZM111.539 8.69531V6.16406H116.414V8.69531H111.539ZM127.922 18L127.898 11.1328C127.898 10.3359 127.703 9.74219 127.312 9.35156C126.938 8.96094 126.414 8.76562 125.742 8.76562C125.211 8.76562 124.719 8.9375 124.266 9.28125C123.812 9.625 123.414 10.0312 123.07 10.5V7.85156C123.32 7.52344 123.617 7.21094 123.961 6.91406C124.32 6.60156 124.727 6.35156 125.18 6.16406C125.633 5.96094 126.125 5.85938 126.656 5.85938C127.469 5.85938 128.195 6.03906 128.836 6.39844C129.477 6.75781 129.977 7.30469 130.336 8.03906C130.711 8.75781 130.898 9.65625 130.898 10.7344V18H127.922ZM120.094 18V6.16406H123.07V18H120.094Z" fill="#6D6E76"/>
</svg>
