<svg width="16" height="14" viewBox="0 0 16 14" fill="none" xmlns="http://www.w3.org/2000/svg">
<path d="M5.03344 13.813C11.0697 13.813 14.3722 8.49818 14.3722 3.89059C14.3722 3.74117 14.3691 3.58844 14.3628 3.43902C15.0052 2.94539 15.5597 2.33395 16 1.63344C15.4017 1.91628 14.7664 2.101 14.1159 2.18129C14.8009 1.74508 15.3137 1.05981 15.5594 0.25252C14.915 0.658247 14.2104 0.944452 13.4756 1.09887C12.9806 0.539958 12.326 0.169893 11.6131 0.0458883C10.9003 -0.0781163 10.1688 0.0508462 9.53183 0.412837C8.89486 0.774828 8.38787 1.34969 8.08923 2.04853C7.7906 2.74738 7.71695 3.53129 7.87969 4.27906C6.575 4.2095 5.29862 3.84939 4.13332 3.22209C2.96802 2.59478 1.9398 1.71429 1.11531 0.637677C0.696266 1.40532 0.568038 2.31368 0.756687 3.17817C0.945337 4.04265 1.43671 4.79838 2.13094 5.29176C1.60975 5.27418 1.09998 5.12508 0.64375 4.8568V4.89996C0.643283 5.70554 0.905399 6.48643 1.38554 7.1099C1.86568 7.73336 2.53422 8.16092 3.2775 8.31988C2.7947 8.46023 2.28799 8.48068 1.79656 8.37965C2.0063 9.07245 2.41438 9.6784 2.96385 10.1129C3.51331 10.5474 4.17675 10.7889 4.86156 10.8035C3.69895 11.7738 2.26278 12.3001 0.784375 12.2976C0.522191 12.2972 0.260266 12.2801 0 12.2465C1.5019 13.2703 3.24902 13.814 5.03344 13.813Z" fill="#232536"/>
</svg>
